<?xml version="1.0" encoding="UTF-8" standalone="no"?>
<svg
   xmlns:dc="http://purl.org/dc/elements/1.1/"
   xmlns:cc="http://creativecommons.org/ns#"
   xmlns:rdf="http://www.w3.org/1999/02/22-rdf-syntax-ns#"
   xmlns:svg="http://www.w3.org/2000/svg"
   xmlns="http://www.w3.org/2000/svg"
   xmlns:sodipodi="http://sodipodi.sourceforge.net/DTD/sodipodi-0.dtd"
   xmlns:inkscape="http://www.inkscape.org/namespaces/inkscape"
   viewBox="0 0 16 16"
   version="1.1"
   id="svg5"
   sodipodi:docname="arrow.svg"
   inkscape:version="1.0.2 (e86c870879, 2021-01-15)">
  <metadata
     id="metadata11">
    <rdf:RDF>
      <cc:Work
         rdf:about="">
        <dc:format>image/svg+xml</dc:format>
        <dc:type
           rdf:resource="http://purl.org/dc/dcmitype/StillImage" />
        <dc:title></dc:title>
      </cc:Work>
    </rdf:RDF>
  </metadata>
  <defs
     id="defs9">
    <inkscape:path-effect
       effect="bspline"
       id="path-effect43"
       is_visible="true"
       lpeversion="1"
       weight="33.333333"
       steps="2"
       helper_size="0"
       apply_no_weight="true"
       apply_with_weight="true"
       only_selected="false" />
  </defs>
  <sodipodi:namedview
     pagecolor="#ffffff"
     bordercolor="#666666"
     borderopacity="1"
     objecttolerance="10"
     gridtolerance="10"
     guidetolerance="10"
     inkscape:pageopacity="0"
     inkscape:pageshadow="2"
     inkscape:window-width="1920"
     inkscape:window-height="985"
     id="namedview7"
     showgrid="false"
     inkscape:zoom="44.6875"
     inkscape:cx="8"
     inkscape:cy="8.4050833"
     inkscape:window-x="0"
     inkscape:window-y="0"
     inkscape:window-maximized="1"
     inkscape:current-layer="svg5" />
  <style
     type="text/css"
     id="current-color-scheme">
        .ColorScheme-Text {
            color:#eff0f1;
        }
    </style>
  <path
     d="M4.293 8l6 6 .707-.707L5.707 8 11 2.707 10.293 2l-6 6z"
     class="ColorScheme-Text"
     fill="currentColor"
     id="path3" />
  <path
     style="fill:#000000;stroke:#000000;stroke-width:1px;stroke-linecap:butt;stroke-linejoin:miter;stroke-opacity:1"
     d="M 10.161179,13.63207 C 9.7932491,13.500249 9.293437,13.000437 8.7935633,12.500564 8.2936896,12.00069 7.7946447,11.501645 7.2948558,11.001856 6.7950668,10.502067 6.295005,10.002005 5.7945518,9.5015518 5.2940986,9.0010986 4.7932539,8.5002539 4.7926393,8.0008952 4.7920247,7.5015364 5.2935775,7.0005475 5.7937044,6.5006706 6.2938312,6.0007938 6.7937978,5.5007647 7.2938417,5.0008146 7.7938855,4.5008644 8.2940069,4.0009931 8.7938791,3.5008709 9.2937514,3.0007486 9.793375,2.5003751 10.161521,2.368521 10.529667,2.236667 10.765425,2.4724251 10.662307,2.8103994 10.559189,3.1483736 10.118149,3.5899761 9.6768964,4.0314785 9.235644,4.4729809 8.7940194,4.914543 8.3530953,5.3555608 7.9121711,5.7965787 7.4710991,6.2379007 7.0299369,6.6788126 6.5887748,7.1197244 6.1475223,7.5602266 6.1481253,8.0009774 c 6.029e-4,0.4407508 0.4414768,0.8816247 0.8826826,1.3228305 0.4412058,0.4412058 0.8832381,0.8832381 1.324533,1.3245331 0.441295,0.441295 0.882315,0.882315 1.3229456,1.322945 0.4406305,0.440631 0.8808725,0.880873 0.9831205,1.219466 0.102247,0.338594 -0.132298,0.573139 -0.500228,0.441318 z"
     id="path41"
     inkscape:path-effect="#path-effect43"
     inkscape:original-d="M 10.293,14 C 9.7932493,13.500249 9.2934374,13.000437 8.7935635,12.500564 8.2936896,12.00069 7.7946448,11.501645 7.2937548,11.000755 6.7950668,10.502067 6.295005,10.002005 5.7945518,9.5015518 5.2940986,9.0010986 4.7932539,8.5002539 4.293,8 4.7930241,7.502537 5.2938274,7.0007976 5.7938606,6.5008269 6.2938937,6.0008563 6.7947979,5.5017646 7.293765,5.000735 7.7948853,4.5018647 8.2942568,4.0012432 8.7941292,3.5011208 9.2940016,3.0009984 9.7943757,2.5013743 10.293,2 10.529667,2.236667 10.765425,2.4724252 11,2.707 10.560189,3.1493727 10.118399,3.5902261 9.6770526,4.0316348 9.2357065,4.4730434 8.7950194,4.9155431 8.3528334,5.3556666 7.9131714,5.7975784 7.4713492,6.2381506 7.030187,6.6790627 6.5890248,7.1199749 6.1485215,7.5612275 5.707,8 6.1487282,8.4417282 6.5896021,8.8826021 7.0308079,9.3238079 7.4720137,9.7650137 7.9140461,10.207046 8.3542378,10.647238 8.7966358,11.089636 9.2376556,11.530656 9.6782863,11.971286 10.118917,12.411917 10.559159,12.852159 11,13.293 10.764654,13.530346 10.530109,13.764891 10.293,14 Z"
     sodipodi:nodetypes="ccccccccccccccccccc" />
  <path
     style="fill:#a0a0a0;stroke:none;stroke-width:0.0223776"
     d=""
     id="path47" />
  <path
     style="fill:#a0a0a0;stroke:none;stroke-width:0.0223776"
     d=""
     id="path49" />
</svg>
